# xmcd
#
# Track frame offsets:
# 150
# 17563
# 33152
# 52897
# 67412
# 84191
# 98741
# 114638
# 130923
# 145837
#
# Disc length: 2117 seconds
#
#
# Revision: 0
# Processed by: cddbd v1.5.1PL0 Copyright (c) Steve Scherf et al.
# Submitted via: FreeRIP 2.941 
#
DISCID=7e08430a
DTITLE=Shenandoah - Super Hits
DYEAR=1900
DGENRE=Country
TTITLE0=Any Ole Stretch Of Blacktop
TTITLE1=Mama Knows
TTITLE2=Sunday In The South
TTITLE3=Church On Cumberland Road
TTITLE4=Two Dozen Roses
TTITLE5=It's Hard To Live Up To The Rock
TTITLE6=Next To You, Next To Me
TTITLE7=Chost In This House
TTITLE8=I Got You
TTITLE9=Moon Over Georgia
EXTD=
EXTT0=
EXTT1=
EXTT2=
EXTT3=
EXTT4=
EXTT5=
EXTT6=
EXTT7=
EXTT8=
EXTT9=
PLAYORDER=
